<svg xmlns="http://www.w3.org/2000/svg" viewBox="0 0 413.137 413.137">
	<g fill="#a4c639">
		<path d="M311.358 136.395h-209.58c-4.66 0-8.44 3.78-8.44 8.44v175.75c0 4.662 3.78 8.44 8.44 8.44h37.364v59.23c0 13.74 11.14 24.882 24.883 24.882 13.742 0 24.883-11.14 24.883-24.883v-59.228h34.803v59.228c0 13.742 11.14 24.883 24.884 24.883 13.742 0 24.883-11.14 24.883-24.883v-59.228h37.882c4.66 0 8.44-3.78 8.44-8.44v-175.75c0-4.662-3.78-8.44-8.442-8.44zM57.856 136.354c-13.742 0-24.883 11.14-24.883 24.883v101.065c0 13.742 11.14 24.883 24.883 24.883 13.742 0 24.883-11.14 24.883-24.883V161.237c-.002-13.742-11.142-24.883-24.884-24.883zM355.28 136.354c-13.74 0-24.882 11.14-24.882 24.883v101.065c0 13.742 11.14 24.883 24.883 24.883 13.743 0 24.884-11.14 24.884-24.883V161.237c0-13.742-11.14-24.883-24.883-24.883zM103.475 124.07h205.692c5.366 0 9.368-4.944 8.266-10.196-6.804-32.428-27.45-59.756-55.465-75.543l17.584-31.726c1.19-2.148.414-4.855-1.734-6.045-2.153-1.194-4.856-.415-6.046 1.733L254.055 34.26c-14.51-6.735-30.683-10.496-47.734-10.496-17.05 0-33.223 3.76-47.734 10.495L140.87 2.29c-1.192-2.15-3.9-2.924-6.046-1.734-2.148 1.19-2.924 3.897-1.734 6.045l17.584 31.727c-28.015 15.788-48.66 43.115-55.465 75.544-1.104 5.252 2.898 10.195 8.265 10.195zm164.222-47.284c0 5.282-4.282 9.565-9.565 9.565-5.282 0-9.565-4.28-9.565-9.564 0-5.282 4.282-9.565 9.565-9.565 5.283 0 9.565 4.284 9.565 9.566zm-113.19-9.565c5.283 0 9.566 4.283 9.566 9.566 0 5.282-4.282 9.565-9.565 9.565-5.282 0-9.565-4.28-9.565-9.564 0-5.282 4.282-9.565 9.565-9.565z"/>
	</g>
</svg>