<svg viewBox="0 0 35.53 40" xmlns="http://www.w3.org/2000/svg" width="72"><defs><style>.cls-an1{fill:#a4c639}</style></defs><title>Android</title><path class="cls-an1" d="M28.19 13.27H7.49c-.48 0-.78 0-.78.65v15.9a2.08 2.08 0 0 0 2 2.18h1.79c.56 0 .64.15.62.64v4.88A2.22 2.22 0 0 0 13.39 40c1.25 0 2.16-.78 2.16-2.49v-4.87c0-.52.17-.68.67-.66h3c.55 0 .74.14.72.7v4.48a2.32 2.32 0 0 0 2.2 2.6 2.27 2.27 0 0 0 2.28-2.26V34c0-1.92 0-1.92 1.89-1.94a2.47 2.47 0 0 0 2.53-2 2.27 2.27 0 0 0 0-.52V14c.06-.54-.04-.74-.65-.73zM7.62 11h20.47c.7 0 .8-.23.68-.82A9.09 9.09 0 0 0 24.58 4c-.42-.27-.56-.45-.2-.89a14.7 14.7 0 0 0 .94-1.4 1 1 0 0 0-.17-1.4L25 .22a1 1 0 0 0-1.43.18l-.1.15c-.4.59-.82 1.2-1.19 1.84a.62.62 0 0 1-.82.32 14.15 14.15 0 0 0-7.35 0 .66.66 0 0 1-.86-.35 18.25 18.25 0 0 0-1-1.64C11.81.19 11-.19 10.54.22a1.07 1.07 0 0 0-.31 1.62c.26.4.48.83.77 1.2s.37.72-.19 1.14a8.85 8.85 0 0 0-4 5.85c-.18.97-.16.97.81.97zm13.52-3.88a1 1 0 0 1 1.11-.9 1.06 1.06 0 0 1 1 1.06v.07a1.1 1.1 0 1 1-2.18-.22zm-7.8-.9a1 1 0 0 1 1.14 1 1.14 1.14 0 1 1-2.18.1 1.06 1.06 0 0 1 1-1.11zM2.19 13.29A2.27 2.27 0 0 0 0 15.64V25.17a2.27 2.27 0 0 0 2.08 2.45 2.17 2.17 0 0 0 2.27-2.06v-.21q.15-4.91.07-9.69a2.18 2.18 0 0 0-2-2.37zm33.33 7.16v-4.74a2.17 2.17 0 0 0-2-2.36h-.24a2.14 2.14 0 0 0-2.27 2.27v9.64a2.22 2.22 0 1 0 4.41 0c.11-1.63.1-3.26.1-4.81z"/></svg>