<svg width="25" height="24" viewBox="0 0 25 24" xmlns="http://www.w3.org/2000/svg"><title>rest</title><path d="M18.45.335c.222.225.333.49.333.792 0 .302-.117.566-.35.79L13.16 6.98l4.554 4.372 5.272-5.062a1.15 1.15 0 0 1 .823-.337c.315 0 .59.107.822.32.245.213.368.477.368.79 0 .314-.123.59-.368.825l-5.27 5.06 2.555 2.44c.187.18.28.4.28.657a.9.9 0 0 1-.262.655c-.176.18-.41.27-.7.27-.293 0-.52-.09-.683-.27l-.176-.168-1.803 1.716c-1.915 1.84-4.175 2.758-6.778 2.758a8.871 8.871 0 0 1-4.764-1.358l-4.053 3.83c-.35.348-.76.522-1.226.522-.466 0-.875-.168-1.225-.505a1.619 1.619 0 0 1-.525-1.21c0-.472.17-.864.508-1.178l3.966-3.75c.05 0 .074-.023.074-.068-1.025-1.425-1.496-3.045-1.414-4.862.074-2.41 1.034-4.49 2.882-6.24L7.82 4.474l-.263-.252c-.187-.178-.28-.392-.28-.638s.087-.465.263-.656c.175-.19.402-.286.682-.286s.514.095.7.286L11.515 5.4l5.27-5.063C17.02.112 17.3 0 17.628 0c.327 0 .602.112.823.335zM9.21 5.802L7.444 7.484c-1.46 1.4-2.225 3.06-2.294 4.98-.072 1.915.553 3.507 1.873 4.775 1.306 1.266 2.942 1.9 4.903 1.9 1.962 0 3.73-.74 5.306-2.22l1.805-1.716L9.21 5.802z" fill="#4285f4" fill-rule="evenodd"/></svg>