<svg viewBox="0 0 31.57 39" xmlns="http://www.w3.org/2000/svg" width="70" fill="#333"><title>Objective-C</title><path d="M0 21.45C0 18 .7 15 2.91 12.67c2.71-2.91 6-4.06 9.82-2.49a8.49 8.49 0 0 0 6.86 0A9.27 9.27 0 0 1 29.84 12c.75.69.79 1.13 0 1.88-4.78 4.46-4.39 10.47.92 14.19.83.58 1 1 .61 1.95a25.82 25.82 0 0 1-4.26 6.82 5 5 0 0 1-6.43 1.54 9 9 0 0 0-8 0C10.27 39.57 8.22 39 6.43 37A24.84 24.84 0 0 1 0 21.45zM23.57 1.14a8.5 8.5 0 0 1-5.78 7.43C16.32 9 15.7 8.66 16 7a8.77 8.77 0 0 1 6-6.81c1.28-.42 1.9-.19 1.57.95z"/></svg>