<svg xmlns="http://www.w3.org/2000/svg" viewBox="0 0 291.538 291.538">
	<path d="M188.373 44.308c10.97-11.744 18.39-28.05 16.36-44.308-15.805.564-34.96 9.277-46.303 21.02-10.17 10.396-19.072 27.01-16.696 42.95 17.635 1.194 35.65-7.937 46.64-19.662zm33.657 112.285c-.337-36.45 28.86-53.958 30.152-54.804-16.414-24.754-41.977-28.14-51.08-28.523-21.768-2.285-42.443 13.182-53.494 13.182-11.006 0-28.03-12.883-46.083-12.537-23.733.39-45.6 14.21-57.79 36.114-24.654 44.063-6.32 109.336 17.705 145.077 11.744 17.497 25.727 37.125 44.09 36.415 17.724-.71 24.406-11.79 45.79-11.79 21.395 0 27.385 11.79 46.102 11.434 19.045-.355 31.098-17.834 42.742-35.386 13.473-20.292 19.027-39.938 19.345-40.93-.41-.237-37.09-14.666-37.48-58.255z" fill="#9ea8ae"/>
</svg>