<svg width="20px" height="20px" viewBox="0 0 20 20" version="1.1" xmlns="http://www.w3.org/2000/svg" xmlns:xlink="http://www.w3.org/1999/xlink"><g id="Page-1" stroke="none" stroke-width="1" fill="none" fill-rule="evenodd"><g id="message-text-outline" fill="#000000" fill-rule="nonzero"><path d="M18,0 C19.1045695,0 20,0.8954305 20,2 L20,14 C20,15.1045695 19.1045695,16 18,16 L4,16 L0,20 L0,2 C0,0.89 0.9,0 2,0 L18,0 M2,2 L2,15.17 L3.17,14 L18,14 L18,2 L2,2 M4,5 L16,5 L16,7 L4,7 L4,5 M4,9 L13,9 L13,11 L4,11 L4,9 Z" id="Shape"></path></g></g></svg>