<svg width="38px" height="44px" viewBox="0 0 38 44" version="1.1" xmlns="http://www.w3.org/2000/svg" xmlns:xlink="http://www.w3.org/1999/xlink">
    <g id="Page-1" stroke="none" stroke-width="1" fill="none" fill-rule="evenodd">
        <g id="copy_icon" transform="translate(-4.000000, -2.000000)">
            <polygon id="Shape" points="0 0 48 0 48 48 0 48"></polygon>
            <path d="M32,2 L8,2 C5.79,2 4,3.79 4,6 L4,34 L8,34 L8,6 L32,6 L32,2 Z M38,10 L16,10 C13.79,10 12,11.79 12,14 L12,42 C12,44.21 13.79,46 16,46 L38,46 C40.21,46 42,44.21 42,42 L42,14 C42,11.79 40.21,10 38,10 Z M38,42 L16,42 L16,14 L38,14 L38,42 Z" id="Shape" fill="#FFFFFF" fill-rule="nonzero"></path>
        </g>
    </g>
</svg>