<svg width="20px" height="18px" viewBox="0 0 20 18" version="1.1" xmlns="http://www.w3.org/2000/svg" xmlns:xlink="http://www.w3.org/1999/xlink"><g id="Page-1" stroke="none" stroke-width="1" fill="none" fill-rule="evenodd"><g id="chart-box-outline" fill="#000000" fill-rule="nonzero"><path d="M7,14 L5,14 L5,7 L7,7 L7,14 M11,14 L9,14 L9,4 L11,4 L11,14 M15,14 L13,14 L13,10 L15,10 L15,14 M17.5,16.1 L2.5,16.1 L2.5,2 L17.5,2 L17.5,16.1 M17.5,0 L2.5,0 C1.4,0 0.5,0.9 0.5,2 L0.5,16 C0.5,17.1 1.4,18 2.5,18 L17.5,18 C18.6,18 19.5,17.1 19.5,16 L19.5,2 C19.5,0.9 18.6,0 17.5,0 Z" id="Shape"></path></g></g></svg>