<svg width="19px" height="16px" viewBox="0 0 19 16" version="1.1" xmlns="http://www.w3.org/2000/svg" xmlns:xlink="http://www.w3.org/1999/xlink"><g id="Page-1" stroke="none" stroke-width="1" fill="none" fill-rule="evenodd"><g id="format-list-bulleted" fill="#000000" fill-rule="nonzero"><path d="M5,1 L19,1 L19,3 L5,3 L5,1 M5,9 L5,7 L19,7 L19,9 L5,9 M2,0.5 C2.82842712,0.5 3.5,1.17157288 3.5,2 C3.5,2.82842712 2.82842712,3.5 2,3.5 C1.17157288,3.5 0.5,2.82842712 0.5,2 C0.5,1.17157288 1.17157288,0.5 2,0.5 M2,6.5 C2.82842712,6.5 3.5,7.17157288 3.5,8 C3.5,8.82842712 2.82842712,9.5 2,9.5 C1.17157288,9.5 0.5,8.82842712 0.5,8 C0.5,7.17157288 1.17157288,6.5 2,6.5 M5,15 L5,13 L19,13 L19,15 L5,15 M2,12.5 C2.82842712,12.5 3.5,13.1715729 3.5,14 C3.5,14.8284271 2.82842712,15.5 2,15.5 C1.17157288,15.5 0.5,14.8284271 0.5,14 C0.5,13.1715729 1.17157288,12.5 2,12.5 Z" id="Shape"></path></g></g></svg>