<svg width="18px" height="16px" viewBox="0 0 18 16" version="1.1" xmlns="http://www.w3.org/2000/svg" xmlns:xlink="http://www.w3.org/1999/xlink"><g id="Page-1" stroke="none" stroke-width="1" fill="none" fill-rule="evenodd"><g id="import" fill="#000000" fill-rule="nonzero"><path d="M12,8 L8,4 L8,7 L0,7 L0,9 L8,9 L8,12 M18,14 L18,2 C18,0.89 17.1,0 16,0 L4,0 C2.8954305,0 2,0.8954305 2,2 L2,5 L4,5 L4,2 L16,2 L16,14 L4,14 L4,11 L2,11 L2,14 C2,15.1045695 2.8954305,16 4,16 L16,16 C17.1045695,16 18,15.1045695 18,14 Z" id="Shape"></path></g></g></svg>