<svg width="20px" height="20px" viewBox="0 0 20 20" version="1.1" xmlns="http://www.w3.org/2000/svg" xmlns:xlink="http://www.w3.org/1999/xlink"><g id="Page-1" stroke="none" stroke-width="1" fill="none" fill-rule="evenodd"><g id="transit-connection-variant" fill="#000000" fill-rule="nonzero"><path d="M16,9 L12.82,9 C12.4,7.84 11.3,7 10,7 C8.7,7 7.6,7.84 7.18,9 L4,9 C3.67,9 2,8.9 2,7 L2,6 C2,4.17 3.54,4 4,4 L14.18,4 C14.6,5.16 15.7,6 17,6 C18.6568542,6 20,4.65685425 20,3 C20,1.34314575 18.6568542,-4.4408921e-16 17,-4.4408921e-16 C15.7,-4.4408921e-16 14.6,0.84 14.18,2 L4,2 C2.39,2 -4.4408921e-16,3.06 -4.4408921e-16,6 L-4.4408921e-16,7 C-4.4408921e-16,9.94 2.39,11 4,11 L7.18,11 C7.6,12.16 8.7,13 10,13 C11.3,13 12.4,12.16 12.82,11 L16,11 C16.33,11 18,11.1 18,13 L18,14 C18,15.83 16.46,16 16,16 L5.82,16 C5.4,14.84 4.3,14 3,14 C1.34314575,14 -4.4408921e-16,15.3431458 -4.4408921e-16,17 C-4.4408921e-16,18.6568542 1.34314575,20 3,20 C4.3,20 5.4,19.16 5.82,18 L16,18 C17.61,18 20,16.93 20,14 L20,13 C20,10.07 17.61,9 16,9 M17,2 C17.5522847,2 18,2.44771525 18,3 C18,3.55228475 17.5522847,4 17,4 C16.4477153,4 16,3.55228475 16,3 C16,2.44771525 16.4477153,2 17,2 M3,18 C2.44771525,18 2,17.5522847 2,17 C2,16.4477153 2.44771525,16 3,16 C3.55228475,16 4,16.4477153 4,17 C4,17.5522847 3.55228475,18 3,18 Z" id="Shape"></path></g></g></svg>