<svg viewBox="0 0 40 40" xmlns="http://www.w3.org/2000/svg" width="72"><defs><style>.cls-js1{fill:#f7df1e}.cls-js2{fill:#333}</style></defs><title>Java Script</title><path class="cls-js1" d="M0 0H40V40H0z"/><path class="cls-js2" d="M26.87 31.25a4.09 4.09 0 0 0 3.71 2.28c1.56 0 2.55-.78 2.55-1.85 0-1.29-1-1.75-2.74-2.5l-.94-.4c-2.71-1.16-4.51-2.6-4.51-5.66 0-2.82 2.15-5 5.5-5a5.56 5.56 0 0 1 5.35 3L32.86 23a2.56 2.56 0 0 0-2.42-1.61A1.64 1.64 0 0 0 28.65 23c0 1.13.7 1.58 2.31 2.28l.94.4c3.19 1.37 5 2.77 5 5.91 0 3.38-2.66 5.24-6.23 5.24A7.22 7.22 0 0 1 23.81 33l3.05-1.77zm-13.28.33c.59 1 1.13 1.93 2.42 1.93s2-.48 2-2.36V18.37h3.76V31.2c0 3.89-2.28 5.66-5.61 5.66a5.84 5.84 0 0 1-5.64-3.43l3.06-1.85z"/></svg>