<svg xmlns="http://www.w3.org/2000/svg" viewBox="0 0 23.136 23.136">
	<path d="M21.658 0H1.478C.66 0 0 .66 0 1.477V21.66c0 .813.662 1.476 1.477 1.476h20.18c.816 0 1.478-.662 1.478-1.477V1.475C23.135.66 22.473 0 21.658 0zM10.505 13.04c0 .643-.06 1.19-.183 1.643s-.307.815-.553 1.1c-.248.28-.557.486-.925.615-.37.13-.798.195-1.287.195-.43 0-.818-.068-1.167-.203s-.643-.328-.887-.58c-.245-.253-.433-.558-.565-.916-.133-.36-.2-.76-.2-1.2v-.287h1.387c0 1.29.478 1.936 1.434 1.936.244 0 .46-.028.653-.087.19-.06.353-.17.486-.332.132-.162.232-.386.3-.676s.105-.668.105-1.135V5.895h1.402v7.145h-.002zm7.735 2.095c-.143.292-.347.547-.608.765-.263.218-.584.387-.96.51-.377.122-.8.183-1.268.183-2.07 0-3.163-.817-3.274-2.453h1.362c.006.924.64 1.387 1.897 1.387.278 0 .528-.03.743-.093.215-.06.395-.146.537-.254.144-.108.252-.237.327-.384.073-.146.112-.305.112-.48 0-.182-.03-.327-.085-.437-.056-.112-.166-.21-.328-.297-.16-.085-.386-.17-.672-.25-.287-.084-.662-.187-1.124-.308-.45-.112-.84-.224-1.165-.336-.328-.11-.596-.246-.805-.405-.21-.16-.366-.356-.467-.59-.1-.233-.15-.528-.15-.884 0-.312.065-.603.198-.87s.323-.5.57-.698c.247-.197.546-.35.896-.462.353-.112.743-.167 1.172-.167 2.002 0 3.02.71 3.05 2.135H16.86c-.048-.71-.584-1.068-1.61-1.068-.227 0-.437.023-.632.068s-.362.11-.506.195-.254.19-.335.315c-.08.125-.12.27-.12.434 0 .15.02.27.057.366.037.096.126.186.267.268s.35.163.626.243c.276.08.653.177 1.132.294.462.11.863.227 1.204.346.34.12.62.265.848.435.226.17.392.376.502.62.108.245.163.55.163.917 0 .343-.073.66-.215.953z" fill="#f6da1d"/>
</svg>