<svg width="24px" height="24px" viewBox="0 0 550 550" xmlns="http://www.w3.org/2000/svg">
    <g id="dashboard" fill-rule="nonzero">
        <path d="M512,256 C512,397.386719 397.386719,512 256,512 C114.613281,512 0,397.386719 0,256 C0,114.613281 114.613281,0 256,0 C397.386719,0 512,114.613281 512,256 Z" id="Shape" fill="#2D65C9"></path>
        <g id="Group" transform="translate(56.000000, 65.000000)" fill="#FFFFFF">
            <path d="M339.949219,60.703125 C334.851562,55.609375 326.851562,54.851562 320.894531,58.914062 C297.445312,74.898438 179.824219,155.273438 167.222656,167.875 C149.148438,185.949219 149.148438,215.355469 167.222656,233.433594 C176.257812,242.46875 188.128906,246.988281 200,246.988281 C211.871094,246.988281 223.738281,242.46875 232.777344,233.433594 C245.378906,220.828125 325.753906,103.210938 341.734375,79.757812 C345.796875,73.804688 345.046875,65.800781 339.949219,60.703125 Z M211.566406,212.21875 C205.1875,218.597656 194.8125,218.597656 188.433594,212.21875 C182.058594,205.84375 182.058594,195.464844 188.433594,189.089844 C193.402344,184.152344 228.429688,159.203125 271.039062,129.617188 C241.449219,172.226562 216.5,207.253906 211.566406,212.21875 Z" id="Shape"></path>
            <path d="M382.371094,118.441406 C378.964844,110.894531 370.082031,107.535156 362.527344,110.941406 C354.976562,114.351562 351.621094,123.234375 355.027344,130.785156 C364.964844,152.792969 370,176.300781 370,200.652344 C370,229.902344 362.410156,258.472656 347.945312,284.015625 L327.171875,274.121094 C319.6875,270.558594 310.738281,273.738281 307.179688,281.214844 C303.617188,288.695312 306.792969,297.648438 314.273438,301.207031 L347.195312,316.886719 C349.269531,317.871094 351.464844,318.34375 353.636719,318.34375 C358.511719,318.34375 363.25,315.964844 366.113281,311.679688 C388.28125,278.523438 400,240.128906 400,200.652344 C400,172.015625 394.070312,144.355469 382.371094,118.441406 Z" id="Shape"></path>
            <path d="M71.921875,274.183594 L51.988281,283.90625 C37.566406,258.390625 30,229.859375 30,200.652344 C30,179.148438 34.023438,158.570312 41.339844,139.617188 L64.171875,150.566406 C66.261719,151.570312 68.472656,152.046875 70.648438,152.046875 C76.238281,152.046875 81.601562,148.90625 84.183594,143.53125 C87.765625,136.0625 84.613281,127.101562 77.144531,123.519531 L54.574219,112.691406 C81.957031,67.585938 129.726562,36.175781 185,31.320312 L185,55.628906 C185,63.914062 191.71875,70.628906 200,70.628906 C208.285156,70.628906 215,63.914062 215,55.628906 L215,31.308594 C234.015625,32.957031 252.414062,37.742188 269.867188,45.621094 C277.417969,49.027344 286.300781,45.675781 289.710938,38.121094 C293.117188,30.570312 289.761719,21.6875 282.210938,18.277344 C256.300781,6.585938 228.640625,0.652344 200,0.652344 C89.71875,0.652344 0,90.371094 0,200.652344 C0,240.128906 11.71875,278.523438 33.886719,311.679688 C36.753906,315.96875 41.488281,318.34375 46.363281,318.34375 C48.582031,318.34375 50.824219,317.851562 52.933594,316.824219 L85.074219,301.144531 C92.519531,297.515625 95.609375,288.535156 91.976562,281.089844 C88.34375,273.644531 79.367188,270.550781 71.921875,274.183594 Z" id="Shape"></path>
        </g>
    </g>
</svg>