<svg viewBox="0 0 48.62 25.85" xmlns="http://www.w3.org/2000/svg" width="82"><defs><style>.cls-php1{fill:#4f5b93;}</style></defs><title>PHP</title><g><path class="cls-php1" d="M24.31.56C11.21.56.56,6.11.56,12.93S11.21,25.3,24.31,25.3s23.75-5.55,23.75-12.37S37.41.56,24.31.56m0,25.3A37.54,37.54,0,0,1,7.19,22.12C2.55,19.68,0,16.41,0,12.93S2.55,6.18,7.19,3.74A37.54,37.54,0,0,1,24.31,0,37.54,37.54,0,0,1,41.43,3.74c4.63,2.44,7.19,5.7,7.19,9.19s-2.55,6.75-7.19,9.19a37.54,37.54,0,0,1-17.12,3.74"></path><path class="cls-php1" d="M41.31,12.1a5.51,5.51,0,0,1-1.73,3.11,4.88,4.88,0,0,1-1.84,1.1,8.45,8.45,0,0,1-2.57.33H32.81L32.15,20H29.39L31.85,7.33h5.31a4.41,4.41,0,0,1,3.49,1.26,4,4,0,0,1,.66,3.51Zm-15,4.54L27.45,11a1.52,1.52,0,0,0-.14-1.31,1.92,1.92,0,0,0-1.37-.35H23.75l-1.41,7.26H19.6L22.06,4H24.8l-.65,3.37h2.44a4.75,4.75,0,0,1,3.18.8,2.66,2.66,0,0,1,.52,2.6l-1.15,5.9H26.36ZM18,15.21a4.87,4.87,0,0,1-1.84,1.1,8.45,8.45,0,0,1-2.57.33H11.27L10.61,20H7.85L10.32,7.33h5.31a4.41,4.41,0,0,1,3.49,1.26,4,4,0,0,1,.66,3.51A5.51,5.51,0,0,1,18,15.21Zm6.27-14C11.56,1.22,1.22,6.46,1.22,12.93S11.56,24.64,24.31,24.64,47.4,19.39,47.4,12.93,37.06,1.22,24.31,1.22Z"></path><path class="cls-php1" d="M36.12,9.33H34.22l-1,5.31h1.68A4.05,4.05,0,0,0,37.36,14a3.34,3.34,0,0,0,1.1-2.1,2.3,2.3,0,0,0-.25-2,2.82,2.82,0,0,0-2.1-.58m-21.54,0H12.69l-1,5.31h1.68A4.05,4.05,0,0,0,15.82,14a3.34,3.34,0,0,0,1.1-2.1,2.3,2.3,0,0,0-.25-2,2.82,2.82,0,0,0-2.1-.58"></path></g></svg>
