<svg width="20px" height="16px" viewBox="0 0 20 16" version="1.1" xmlns="http://www.w3.org/2000/svg" xmlns:xlink="http://www.w3.org/1999/xlink"><g id="Page-1" stroke="none" stroke-width="1" fill="none" fill-rule="evenodd"><g id="account-details-outline" fill="#000000" fill-rule="nonzero"><path d="M9,5 C9,6.66 7.66,8 6,8 C4.34,8 3,6.66 3,5 C3,3.34 4.34,2 6,2 C7.66,2 9,3.34 9,5 M12,16 L0,16 L0,14 C0,11.79 2.69,10 6,10 C9.31,10 12,11.79 12,14 M5,5 C5,5.55 5.45,6 6,6 C6.55,6 7,5.55 7,5 C7,4.45 6.55,4 6,4 C5.45,4 5,4.45 5,5 M2,14 L10,14 C10,12.9 8.21,12 6,12 C3.79,12 2,12.9 2,14 M20,8 L20,10 L11,10 L11,8 M20,4 L20,6 L11,6 L11,4 M20,0 L20,2 L11,2 L11,0 L20,0 Z" id="Shape"></path></g></g></svg>