<svg width="24px" height="14px" viewBox="0 0 24 14" version="1.1" xmlns="http://www.w3.org/2000/svg" xmlns:xlink="http://www.w3.org/1999/xlink"><g id="Page-1" stroke="none" stroke-width="1" fill="none" fill-rule="evenodd"><g id="account-group-outline" fill="#000000" fill-rule="nonzero"><path d="M12,-8.8817842e-16 C10.0670034,-8.8817842e-16 8.5,1.56700338 8.5,3.5 C8.5,5.43299662 10.0670034,7 12,7 C13.9329966,7 15.5,5.43299662 15.5,3.5 C15.5,1.56700338 13.9329966,-8.8817842e-16 12,-8.8817842e-16 M12,2 C12.8284271,2 13.5,2.67157288 13.5,3.5 C13.5,4.32842712 12.8284271,5 12,5 C11.1715729,5 10.5,4.32842712 10.5,3.5 C10.5,2.67157288 11.1715729,2 12,2 M5.5,3 C4.11928813,3 3,4.11928813 3,5.5 C3,6.44 3.53,7.25 4.29,7.68 C4.65,7.88 5.06,8 5.5,8 C5.94,8 6.35,7.88 6.71,7.68 C7.08,7.47 7.39,7.17 7.62,6.81 C6.89,5.86 6.5,4.7 6.5,3.5 C6.5,3.41 6.5,3.31 6.5,3.22 C6.2,3.08 5.86,3 5.5,3 M18.5,3 C18.14,3 17.8,3.08 17.5,3.22 C17.5,3.31 17.5,3.41 17.5,3.5 C17.5,4.7 17.11,5.86 16.38,6.81 C16.5,7 16.63,7.15 16.78,7.3 C16.94,7.45 17.1,7.58 17.29,7.68 C17.65,7.88 18.06,8 18.5,8 C18.94,8 19.35,7.88 19.71,7.68 C20.47,7.25 21,6.44 21,5.5 C21,4.11928813 19.8807119,3 18.5,3 M12,9 C9.66,9 5,10.17 5,12.5 L5,14 L19,14 L19,12.5 C19,10.17 14.34,9 12,9 M4.71,9.55 C2.78,9.78 0,10.76 0,12.5 L0,14 L3,14 L3,12.07 C3,11.06 3.69,10.22 4.71,9.55 M19.29,9.55 C20.31,10.22 21,11.06 21,12.07 L21,14 L24,14 L24,12.5 C24,10.76 21.22,9.78 19.29,9.55 M12,11 C13.53,11 15.24,11.5 16.23,12 L7.77,12 C8.76,11.5 10.47,11 12,11 Z" id="Shape"></path></g></g></svg>