<svg width="20px" height="20px" viewBox="0 0 20 20" version="1.1" xmlns="http://www.w3.org/2000/svg" xmlns:xlink="http://www.w3.org/1999/xlink"><g id="Page-1" stroke="none" stroke-width="1" fill="none" fill-rule="evenodd"><g id="cog-outline" fill="#000000" fill-rule="nonzero"><path d="M10,6 C12.209139,6 14,7.790861 14,10 C14,12.209139 12.209139,14 10,14 C7.790861,14 6,12.209139 6,10 C6,7.790861 7.790861,6 10,6 M10,8 C8.8954305,8 8,8.8954305 8,10 C8,11.1045695 8.8954305,12 10,12 C11.1045695,12 12,11.1045695 12,10 C12,8.8954305 11.1045695,8 10,8 M8,20 C7.75,20 7.54,19.82 7.5,19.58 L7.13,16.93 C6.5,16.68 5.96,16.34 5.44,15.94 L2.95,16.95 C2.73,17.03 2.46,16.95 2.34,16.73 L0.34,13.27 C0.21,13.05 0.27,12.78 0.46,12.63 L2.57,10.97 L2.5,10 L2.57,9 L0.46,7.37 C0.27,7.22 0.21,6.95 0.34,6.73 L2.34,3.27 C2.46,3.05 2.73,2.96 2.95,3.05 L5.44,4.05 C5.96,3.66 6.5,3.32 7.13,3.07 L7.5,0.42 C7.54,0.18 7.75,0 8,0 L12,0 C12.25,0 12.46,0.18 12.5,0.42 L12.87,3.07 C13.5,3.32 14.04,3.66 14.56,4.05 L17.05,3.05 C17.27,2.96 17.54,3.05 17.66,3.27 L19.66,6.73 C19.79,6.95 19.73,7.22 19.54,7.37 L17.43,9 L17.5,10 L17.43,11 L19.54,12.63 C19.73,12.78 19.79,13.05 19.66,13.27 L17.66,16.73 C17.54,16.95 17.27,17.04 17.05,16.95 L14.56,15.95 C14.04,16.34 13.5,16.68 12.87,16.93 L12.5,19.58 C12.46,19.82 12.25,20 12,20 L8,20 M9.25,2 L8.88,4.61 C7.68,4.86 6.62,5.5 5.85,6.39 L3.44,5.35 L2.69,6.65 L4.8,8.2 C4.4,9.37 4.4,10.64 4.8,11.8 L2.68,13.36 L3.43,14.66 L5.86,13.62 C6.63,14.5 7.68,15.14 8.87,15.38 L9.24,18 L10.76,18 L11.13,15.39 C12.32,15.14 13.37,14.5 14.14,13.62 L16.57,14.66 L17.32,13.36 L15.2,11.81 C15.6,10.64 15.6,9.37 15.2,8.2 L17.31,6.65 L16.56,5.35 L14.15,6.39 C13.38,5.5 12.32,4.86 11.12,4.62 L10.75,2 L9.25,2 Z" id="Shape"></path></g></g></svg>