<svg width="18px" height="22px" viewBox="0 0 18 22" version="1.1" xmlns="http://www.w3.org/2000/svg" xmlns:xlink="http://www.w3.org/1999/xlink"><g id="Page-1" stroke="none" stroke-width="1" fill="none" fill-rule="evenodd"><g id="cellphone-cog" fill="#000000" fill-rule="nonzero"><path d="M8.82,11.5 C8.84,11.33 8.86,11.17 8.86,11 C8.86,10.83 8.84,10.67 8.82,10.5 L9.9,9.69 C10,9.62 10,9.5 9.96,9.37 L8.93,7.64 C8.87,7.53 8.73,7.5 8.62,7.53 L7.34,8.03 C7.07,7.83 6.78,7.67 6.47,7.54 L6.27,6.21 C6.27,6.09 6.16,6 6.03,6 L4,6 C3.85,6 3.74,6.09 3.72,6.21 L3.5,7.53 C3.21,7.65 2.92,7.83 2.65,8 L1.37,7.5 C1.25,7.47 1.12,7.5 1.06,7.63 L0.03,9.36 C-0.03,9.5 1.73472348e-17,9.61 0.1,9.69 L1.18,10.5 C1.16,10.67 1.15,10.84 1.15,11 C1.15,11.17 1.17,11.33 1.19,11.5 L0.1,12.32 C1.73472348e-17,12.39 1.73472348e-17,12.53 0.04,12.64 L1.07,14.37 C1.13,14.5 1.27,14.5 1.38,14.5 L2.66,14 C2.93,14.18 3.22,14.34 3.53,14.47 L3.73,15.79 C3.74,15.91 3.85,16 4,16 L6.04,16 C6.17,16 6.28,15.91 6.29,15.79 L6.5,14.47 C6.8,14.35 7.09,14.17 7.36,14 L8.64,14.5 C8.76,14.53 8.89,14.5 8.95,14.37 L10,12.64 C10.04,12.53 10,12.4 9.92,12.32 L8.82,11.5 M5,12.75 C4,12.75 3.2,11.97 3.2,11 C3.2,10.03 4,9.25 5,9.25 C6,9.25 6.8,10.03 6.8,11 C6.8,11.97 6,12.75 5,12.75 M16,0 L6,0 C4.8954305,0 4,0.8954305 4,2 L4,5 L6,5 L6,3 L16,3 L16,19 L6,19 L6,17 L4,17 L4,20 C4,21.1045695 4.8954305,22 6,22 L16,22 C17.1045695,22 18,21.1045695 18,20 L18,2 C18,0.8954305 17.1045695,0 16,0 Z" id="Shape"></path></g></g></svg>