<svg width="20px" height="20px" viewBox="0 0 20 20" version="1.1" xmlns="http://www.w3.org/2000/svg" xmlns:xlink="http://www.w3.org/1999/xlink"><g id="Page-1" stroke="none" stroke-width="1" fill="none" fill-rule="evenodd"><g id="link-variant" fill="#000000" fill-rule="nonzero"><path d="M8.59,11.41 C9,11.8 9,12.44 8.59,12.83 C8.2,13.22 7.56,13.22 7.17,12.83 C5.22,10.88 5.22,7.71 7.17,5.76 L7.17,5.76 L10.71,2.22 C12.66,0.27 15.83,0.27 17.78,2.22 C19.73,4.17 19.73,7.34 17.78,9.29 L16.29,10.78 C16.3,9.96 16.17,9.14 15.89,8.36 L16.36,7.88 C17.54,6.71 17.54,4.81 16.36,3.64 C15.19,2.46 13.29,2.46 12.12,3.64 L8.59,7.17 C7.41,8.34 7.41,10.24 8.59,11.41 M11.41,7.17 C11.8,6.78 12.44,6.78 12.83,7.17 C14.78,9.12 14.78,12.29 12.83,14.24 L12.83,14.24 L9.29,17.78 C7.34,19.73 4.17,19.73 2.22,17.78 C0.27,15.83 0.27,12.66 2.22,10.71 L3.71,9.22 C3.7,10.04 3.83,10.86 4.11,11.65 L3.64,12.12 C2.46,13.29 2.46,15.19 3.64,16.36 C4.81,17.54 6.71,17.54 7.88,16.36 L11.41,12.83 C12.59,11.66 12.59,9.76 11.41,8.59 C11,8.2 11,7.56 11.41,7.17 Z" id="Shape"></path></g></g></svg>